This strangely-christened French film noir was released in the U.S. as Grisbi. Jean Gabin stars as a racketeer known by the Runyonesque nickname of Max the Liar. Seeking out the finer things in life, Max intends to pull one last job and retire. After stealing a fortune in gold, our "hero" is faced with a crisis of conscience when his best friend (René Dary) is kidnapped and held for a huge ransom. Somehow Max manages to turn the tables on the abductors, but his dreams of a life of ease explode in his face. Up-and-coming leading lady Jeanne Moreau plays a pivotal role as the femme fatale who leads Dary into the hands of his kidnappers. 

   General
      Complete name : Touchez pas au Grisbi .avi
      Format : AVI
      Format/Info : Audio Video Interleave
      File size : 1.37 GiB
      Duration : 1h 36mn
      Overall bit rate : 2 019 Kbps
      Writing application : VirtualDubMod 1.5.10.1 (build 2519/release)
      Writing library : VirtualDubMod build 2519/release
   Video #0
      ID : 0
      Format : MPEG-4 Visual
      Format profile : AdvancedSimple@L5
      Format settings, BVOP : Yes
      Format settings, QPel : No
      Format settings, GMC : No warppoints
      Format settings, Matrix : Custom
      Codec ID : XVID
      Codec ID/Hint : XviD
      Duration : 1h 36mn
      Bit rate : 1 927 Kbps
      Width : 640 pixels
      Height : 480 pixels
      Display aspect ratio : 4:3
      Frame rate : 23.976 fps
      Resolution : 24 bits
      Colorimetry : 4:2:0
      Scan type : Progressive
      Bits/(Pixel*Frame) : 0.262
      Stream size : 1.30 GiB (95%)
      Writing library : XviD 1.2.0SMP (UTC 2006-01-08)
   Audio #1
      ID : 1
      Format : MPEG Audio
      Format version : Version 1
      Format profile : Layer 3
      Codec ID : 55
      Codec ID/Hint : MP3
      Duration : 1h 36mn
      Bit rate mode : Variable
      Bit rate : 79.8 Kbps
      Nominal bit rate : 104 Kbps
      Channel(s) : 1 channel
      Sampling rate : 48.0 KHz
      Resolution : 16 bits
      Stream size : 55.2 MiB (4%)
      Alignment : Aligned on interleaves
      Interleave, duration : 24 ms (0.58 video frame)
      Interleave, preload duration : 231 ms
      Writing library : LAME3.97b
      Encoding settings : -m m -V 4 -q 2 -lowpass 20.5 --abr 104
      Language : French
 
http://www.imdb.com/title/tt0046451/

French audio; English, Spanish and Portuguese subtitles

Posted originally at KG by raminmehr, whom we thank

Jacques Becker - Touchez pas au grisbi (1954)